<svg version="1.1" id="Layer_1" xmlns="http://www.w3.org/2000/svg" xmlns:xlink="http://www.w3.org/1999/xlink" x="0px" y="0px"
	 width="100%" viewBox="0 0 976 976" enable-background="new 0 0 976 976" xml:space="preserve">
<path fill="#000000" opacity="1.000000" stroke="none" 
	d="
M352.207397,697.792603 
	C347.059692,692.860962 342.157532,688.183777 337.041962,683.303040 
	C339.614105,681.000916 341.699707,681.663391 343.548401,681.655884 
	C362.209442,681.580017 380.870819,681.597900 399.532043,681.560364 
	C401.694611,681.556030 403.883118,681.552551 406.013367,681.236755 
	C409.568634,680.709717 411.742859,678.729065 411.741852,674.887817 
	C411.741455,673.388245 411.757690,671.888733 411.757629,670.389160 
	C411.752747,554.755432 411.745087,439.121704 411.761749,323.487976 
	C411.761993,321.902069 411.226868,320.145294 412.879486,318.575226 
	C415.318146,318.924713 416.516235,321.114746 418.070587,322.663635 
	C439.423889,343.941925 460.712372,365.285278 482.063385,386.565887 
	C487.654236,392.138306 489.040314,392.018250 494.656982,386.337250 
	C515.972534,364.777435 537.298462,343.227905 558.639587,321.693359 
	C559.773987,320.548676 560.668396,318.989288 562.597778,318.861023 
	C564.507324,320.155273 563.888672,322.141479 563.888916,323.868866 
	C563.902893,430.493927 563.897156,537.118958 563.862732,643.744019 
	C563.859680,653.234436 563.620361,662.724426 563.550476,672.215088 
	C563.495239,679.713562 565.361267,681.550293 573.007690,681.560730 
	C594.668030,681.590271 616.328491,681.571655 637.988708,681.632935 
	C639.909058,681.638367 641.952454,681.071167 643.792603,682.229980 
	C644.143250,684.161987 642.589905,684.905334 641.593872,685.879761 
	C610.397339,716.402954 579.191223,746.916504 547.956116,777.400269 
	C529.362366,795.546936 510.664673,813.587585 492.152252,831.816650 
	C489.406219,834.520569 487.815430,834.189331 485.288605,831.630981 
	C462.114777,808.168396 438.834808,784.810608 415.573730,761.434204 
	C394.541199,740.297424 373.493805,719.175476 352.207397,697.792603 
z"/>
<path fill="#000000" opacity="1.000000" stroke="none" 
	d="
M501.345154,237.347107 
	C489.297760,249.436386 487.423218,249.637665 475.758820,238.049988 
	C452.731079,215.173676 429.910583,192.088791 406.997070,169.097412 
	C405.235474,167.329819 403.303864,165.719864 401.647125,163.861954 
	C397.886078,159.644135 397.736115,153.908875 401.147888,150.300858 
	C404.663635,146.582886 410.866913,146.465988 415.073883,150.529449 
	C423.217621,158.395493 431.118988,166.512314 439.129791,174.516144 
	C454.090973,189.464325 469.137207,204.328796 483.961304,219.411606 
	C487.165619,222.671783 489.118134,222.629196 492.337097,219.351166 
	C514.388245,196.895508 536.637756,174.634628 558.814331,152.302124 
	C560.578369,150.525711 562.232117,148.504028 564.760925,147.911819 
	C568.758423,146.975647 572.461304,147.607193 575.027344,151.175735 
	C577.783569,155.008789 577.827576,159.038147 574.800781,162.681259 
	C572.361511,165.617203 569.523438,168.224258 566.835205,170.950546 
	C545.091492,193.002045 523.341309,215.047272 501.345154,237.347107 
z"/>
<path fill="#000000" opacity="1.000000" stroke="none" 
	d="
M446.003693,255.996490 
	C460.121582,270.076019 473.989441,283.905518 487.706665,297.584778 
	C496.226013,289.262085 504.154846,281.687439 511.892059,273.921906 
	C527.881958,257.873444 543.743652,241.697296 559.715637,225.630829 
	C564.510437,220.807648 570.234802,220.473297 574.277771,224.526199 
	C578.424072,228.682709 577.992615,233.842606 572.912903,238.991592 
	C547.410706,264.841431 521.897339,290.680328 496.349335,316.484924 
	C490.641602,322.250031 485.672180,322.197662 479.996063,316.522125 
	C454.550781,291.079529 429.110931,265.631531 403.672150,240.182419 
	C401.553925,238.063339 399.237610,236.047318 398.829651,232.821899 
	C398.306458,228.685318 399.376984,225.109039 403.175873,222.974319 
	C407.327576,220.641342 411.294403,221.427383 414.611633,224.690659 
	C422.805878,232.751572 430.897827,240.916504 439.031403,249.039108 
	C441.271179,251.275879 443.512878,253.510757 446.003693,255.996490 
z"/>
</svg>